<svg xmlns="http://www.w3.org/2000/svg" width="0" height="0" style="position:absolute"><symbol id="ps-icon_brand_playstation" viewBox="0 0 64 64"><path fill-rule="evenodd" d="M15.293 40.789a20.24 20.24 0 0 0 9.626.772c.203-.033.424-.066.617-.103v-3.245l-3.088 1.119c-1.142.412-2.816.496-3.74.194-.925-.304-.753-.88.386-1.289l6.442-2.306v-3.628l-8.95 3.182s-2.166.711-3.441 1.656c-1.378 1.022-.876 2.796 2.148 3.648zm18.885 3.991l13.648-4.902s1.834-.672 2.583-1.617c.746-.945.414-2.317-2.529-3.249-2.617-.99-5.943-1.329-8.663-1.029-2.719.299-4.653.983-4.653.983l-.386.131v3.751l6.692-2.355c1.139-.41 2.813-.497 3.741-.194.924.302.749.879-.39 1.289l-10.043 3.577v3.615zm-7.427-29.158V43.22l6.242 1.982V22.054c0-1.083.484-1.81 1.266-1.559 1.018.285 1.218 1.283 1.218 2.367v9.245c3.891 1.877 6.955-.003 6.955-4.964 0-5.09-1.791-7.349-7.079-9.163-2.082-.701-5.95-1.866-8.602-2.358zm28.417 15.962c0 13.025-10.561 23.584-23.586 23.584C18.556 55.168 8 44.609 8 31.584 8 18.56 18.556 8 31.582 8c13.025 0 23.586 10.56 23.586 23.584z"/></symbol><symbol id="ps-icon_brand_playstation-family" viewBox="0 0 64 64"><path fill-rule="evenodd" d="M51.644 40.724a7.479 7.479 0 0 1-2.696 1.696l-13.932 5.136v-3.788l10.172-3.749c1.19-.428 1.371-1.033.405-1.35a7.044 7.044 0 0 0-3.902.202l-6.675 2.47V37.41l.404-.137a17.987 17.987 0 0 1 4.546-1.032 20.626 20.626 0 0 1 9.038 1.08c3.075.976 3.42 2.413 2.64 3.403zm-15.62-6.449v-9.687c0-1.137-.169-2.183-1.232-2.48-.814-.263-.792.497-.792 1.633v24.256l-7-2.077V17a77.512 77.512 0 0 1 8.932 2.471c5.518 1.902 7.388 4.27 7.388 9.603 0 5.198-3.235 7.17-7.297 5.201zm-21.021 9.098c-3.155-.893-3.681-2.751-2.243-3.823a15.37 15.37 0 0 1 3.59-1.733l9.651-3.335v3.801L18.97 40.7c-1.189.428-1.37 1.032-.405 1.35a7.062 7.062 0 0 0 3.903-.202L26 40.674v3.401c-.204.037-.432.073-.643.108-3.468.548-7.015.27-10.355-.81z"/></symbol><symbol id="ps-icon_brand_playstation-family_logo" viewBox="0 0 238 42"><path d="M77.629 8.215H67.147a.082.082 0 0 0-.082.073v24.525a.082.082 0 0 0 .082.078h4.248a.077.077 0 0 0 .072-.078V10.955c0-.024 0-.038.03-.038h4.86c1.774 0 2.746 1.783 2.746 5.016s-.967 5.026-2.745 5.026h-2.929a.077.077 0 0 0-.072.077v2.547a.068.068 0 0 0 .072.077h4.195a5.36 5.36 0 0 0 3.972-1.865c1.242-1.397 1.895-3.417 1.895-5.833 0-4.688-2.291-7.732-5.867-7.732m12.82-.015h-4.252a.077.077 0 0 0-.082.073v24.525a.082.082 0 0 0 .082.078h4.253a.082.082 0 0 0 .077-.078V8.293a.077.077 0 0 0-.077-.073m18.542 5.968a.082.082 0 0 0-.082-.077h-7.573c-6.765 0-7.654 4.983-7.654 9.366v3.784c0 3.262 2.025 5.63 4.832 5.63h4.132a.077.077 0 0 0 .073-.078v-2.542a.077.077 0 0 0-.073-.077h-2.977c-.676 0-1.595-.3-1.595-2.639v-4.083c0-2.72.252-4.456.817-5.446.61-1.093 1.57-1.238 2.416-1.238h3.229s.024 0 .029.04c.004.038 0 15.985 0 15.985a.077.077 0 0 0 .077.078h4.243a.082.082 0 0 0 .082-.078V14.188zm30.586 4.292l-2.098-.16c-1.57-.135-2.735-1.005-2.735-3.576 0-3.006 1.348-3.827 3.146-3.827h5.8a.082.082 0 0 0 .077-.073V8.293a.082.082 0 0 0-.078-.073h-6.403c-3.958 0-6.766 2.325-6.766 6.954v.198c0 3.654 2.248 6.283 5.601 6.549l2.083.154c1.59.121 2.58 1.542 2.58 3.697v.61c0 1.347-.337 3.817-3.232 3.817h-6.026a.077.077 0 0 0-.073.077v2.537a.077.077 0 0 0 .073.078h7.476c2.305 0 6.161-.933 6.161-7.206 0-2.266-.517-4.06-1.56-5.354-.895-1.107-2.214-1.711-4.026-1.851m34.819-4.292a.077.077 0 0 0-.078-.077h-7.587c-6.766 0-7.65 4.983-7.65 9.366v3.784c0 3.262 2.025 5.63 4.833 5.63h4.117a.082.082 0 0 0 .077-.078v-2.542a.082.082 0 0 0-.077-.077h-2.953c-.676 0-1.585-.3-1.585-2.639v-4.083c0-2.72.251-4.456.807-5.446.61-1.093 1.58-1.238 2.417-1.238h3.237s.03 0 .034.04v15.985a.077.077 0 0 0 .078.078h4.247a.077.077 0 0 0 .073-.078zm-17.084-.077h-4.61a.029.029 0 0 1-.024-.029v-3.088a.077.077 0 0 0-.077-.077h-4.243a.082.082 0 0 0-.083.077v16.271c0 3.258 2.03 5.626 4.833 5.626h3.04a.082.082 0 0 0 .082-.078v-2.537a.082.082 0 0 0-.082-.082h-1.87c-.484 0-1.6-.029-1.605-2.416v-10.97a.024.024 0 0 1 .024-.024h4.615a.077.077 0 0 0 .078-.073v-2.523a.077.077 0 0 0-.078-.077m29.668 0h-4.591a.029.029 0 0 1-.03-.029v-3.088a.072.072 0 0 0-.067-.077h-4.258a.077.077 0 0 0-.077.077v16.271c0 3.258 2.025 5.626 4.833 5.626h3.04a.077.077 0 0 0 .077-.078v-2.537a.082.082 0 0 0-.078-.082h-1.865c-.483 0-1.595-.029-1.595-2.416v-10.97a.024.024 0 0 1 .024-.024h4.596a.077.077 0 0 0 .073-.073v-2.523a.077.077 0 0 0-.073-.077m7.012 0h-4.248a.077.077 0 0 0-.077.077v18.625a.082.082 0 0 0 .077.078h4.248a.077.077 0 0 0 .078-.078V14.188a.072.072 0 0 0-.078-.077m0-5.896h-4.248a.077.077 0 0 0-.077.073v3.561a.077.077 0 0 0 .077.073h4.248a.068.068 0 0 0 .078-.073V8.293a.072.072 0 0 0-.078-.073m29.382 5.891h-7.577a.077.077 0 0 0-.073.077v18.625a.077.077 0 0 0 .073.078h4.257a.077.077 0 0 0 .073-.078v-15.99a.024.024 0 0 1 .029-.03h3.218c.875 0 1.837.145 2.446 1.155.565.914.816 2.518.816 5.036v9.834a.077.077 0 0 0 .073.077h4.238a.077.077 0 0 0 .077-.077v-9.346c0-4.378-.87-9.36-7.645-9.36m-18.475 0c-7.094 0-8.002 5.006-8.002 9.384s.908 9.41 8.002 9.41c7.095 0 7.998-5.027 7.998-9.41s-.903-9.385-7.998-9.385m2.692 14.85c-.667 1.103-1.73 1.247-2.692 1.247-.961 0-2.02-.144-2.696-1.246-.61-.967-.89-2.726-.89-5.466 0-3.233.397-5.07 1.286-5.94.532-.53 1.223-.748 2.3-.748 1.078 0 1.774.217 2.305.749.885.87 1.281 2.716 1.281 5.958 0 2.74-.28 4.48-.894 5.466m-96.217-14.87a.053.053 0 0 0-.048.073l6.282 18.455a.295.295 0 0 1 0 .145l-3.547 9.139c0 .043 0 .077.044.077h3.697a.126.126 0 0 0 .11-.077l11.063-27.74c0-.043 0-.072-.049-.072h-4.03a.126.126 0 0 0-.106.073l-4.683 12.13c0 .038-.034.038-.053 0l-4.132-12.13a.106.106 0 0 0-.102-.073zm124.454 14.667a2.059 2.059 0 1 1-2.069 2.059 1.991 1.991 0 0 1 2.069-2.059zm0 3.808a1.75 1.75 0 1 0-1.735-1.75 1.687 1.687 0 0 0 1.735 1.75zm-.817-2.948h.967c.435 0 .754.13.754.619a.56.56 0 0 1-.435.58c.154.038.26.154.338.43.077.275.164.517.232.744h-.45c-.058-.179-.135-.483-.183-.648-.068-.275-.145-.362-.483-.362h-.3v1.01h-.425zm.425 1.068h.382c.3 0 .483-.116.483-.391 0-.276-.222-.372-.454-.372h-.396zM20.015 0v38.347l8.698 2.75V8.944c0-1.517.677-2.522 1.76-2.175 1.415.392 1.69 1.789 1.69 3.287v12.84c5.404 2.614 9.666 0 9.666-6.901 0-7.056-2.494-10.197-9.834-12.724A105.95 105.95 0 0 0 20.015 0"/><path d="M30.351 35.49l13.942-4.963c1.58-.584 1.822-1.377.542-1.797-1.28-.42-3.61-.305-5.205.27l-9.279 3.272v-5.21l.532-.173a31.562 31.562 0 0 1 6.466-1.363 27.705 27.705 0 0 1 12.028 1.45c4.098 1.3 4.557 3.199 3.518 4.518-1.039 1.32-3.6 2.252-3.6 2.252l-18.944 6.766zm-26.24-.526c-4.2-1.175-4.9-3.644-2.987-5.07 1.769-1.304 4.79-2.285 4.79-2.285l12.424-4.413v5.026l-8.94 3.19c-1.586.565-1.823 1.363-.547 1.783 1.276.42 3.605.314 5.19-.27l4.297-1.513v4.509l-.865.14A27.889 27.889 0 0 1 4.11 34.964zm45.841 2.025a2.054 2.054 0 1 1-2.063 2.053 1.986 1.986 0 0 1 2.063-2.053zm0 3.803a1.75 1.75 0 1 0-1.734-1.75 1.687 1.687 0 0 0 1.734 1.75zm-.811-2.943h.937c.435 0 .759.125.759.614a.56.56 0 0 1-.44.58c.155.038.266.154.343.43.077.275.164.517.232.744h-.435c-.063-.179-.14-.483-.188-.648-.068-.275-.145-.362-.484-.362h-.28v1.01h-.425zm.425 1.063h.377c.3 0 .483-.116.483-.391 0-.276-.222-.373-.454-.373h-.406z"/></symbol><symbol id="ps-icon_brand_playstation-music" viewBox="0 0 64 64"><path fill-rule="evenodd" d="M31.998 16.692c1.775 0 7.929.384 12.585 5.326 4.198 4.457 4.684 9.39 4.684 12.714 0 6.938-2.674 10.579-4.684 12.713-4.656 4.942-10.81 5.326-12.585 5.326h-.101c-1.9-.016-7.914-.474-12.485-5.326-4.2-4.457-4.685-9.39-4.685-12.713 0-6.94 2.674-10.58 4.685-12.714 4.656-4.942 10.809-5.326 12.586-5.326zm.117-5.463c2.469.018 10.386.612 16.444 7.042 1.746 1.854 3.87 4.557 5.117 8.728.296.782.565 1.388 1.766 2.314.53.409.838.687 1.075 1.049.268.409.43.904.468 1.449.172 2.483.174 4.206-.055 6.401-.23 2.196-.903 5.054-1.876 7.394-.32.773-1.085 1.318-2.095 1.464-.991.142-3.105.422-3.105.422-.81.11-1.38-.772-.951-1.468.077-.124.152-.247.224-.368.056-.108.436-.803.415-.76 1.278-2.441 2.27-5.709 2.27-10.165 0-7.844-3.07-12.008-5.377-14.459C41.08 14.589 34.033 14.147 32 14.147h-.11c-2.166.017-9.063.54-14.325 6.125-2.308 2.451-5.376 6.615-5.376 14.459 0 4.456.99 7.724 2.269 10.165-.021-.043.36.652.415.76.072.121.147.244.224.368.429.696-.141 1.578-.951 1.468 0 0-2.114-.28-3.104-.422-1.011-.146-1.775-.691-2.096-1.464-.972-2.34-1.647-5.198-1.876-7.394-.23-2.195-.227-3.918-.055-6.401.038-.545.2-1.04.469-1.449.236-.362.544-.64 1.075-1.049 1.2-.926 1.469-1.532 1.765-2.314 1.246-4.171 3.37-6.874 5.117-8.728 6.156-6.534 14.23-7.042 16.559-7.042zm-3.17 13.127V41.78l3.942 1.252V28.417c0-.685.306-1.143.8-.988.642.183.768.814.768 1.494v5.84c2.457 1.188 4.39-.002 4.39-3.134 0-3.216-1.131-4.642-4.47-5.79-1.311-.438-3.753-1.175-5.43-1.483zm13.34 12.24c-1.65-.622-3.751-.837-5.468-.65-1.716.19-2.938.624-2.938.624l-.243.083v2.368l4.224-1.49c.72-.258 1.776-.312 2.362-.12.583.192.472.556-.247.813l-6.34 2.257v2.284l8.614-3.095s1.158-.427 1.63-1.021c.477-.598.265-1.462-1.594-2.052zm-14.104-1.71l-5.651 2.012s-1.368.445-2.172 1.045c-.872.643-.552 1.763 1.357 2.3 2.047.676 4.126.808 6.077.489.127-.02.265-.041.389-.064v-2.05l-1.951.709c-.718.257-1.776.31-2.36.119-.587-.191-.475-.555.244-.815l4.067-1.453v-2.291z"/></symbol><symbol id="ps-icon_brand_playstation-network" viewBox="0 0 64 64"><path fill-rule="evenodd" d="M44.887 36.76c-.52.657-1.793 1.128-1.793 1.128l-9.468 3.421v-2.524l6.969-2.495c.79-.284.912-.686.271-.897-.643-.213-1.804-.154-2.597.132l-4.643 1.646v-2.617l.268-.092s1.343-.48 3.228-.689c1.888-.208 4.199.03 6.012.719 2.043.651 2.275 1.607 1.753 2.268zM32.804 25.45v16.154l-4.333-1.384V20.961c1.843.341 4.526 1.155 5.969 1.641 3.669 1.268 4.912 2.844 4.912 6.399 0 3.462-2.125 4.777-4.825 3.464V26.01c0-.752-.139-1.449-.845-1.651-.542-.172-.878.334-.878 1.091zm-5.173 9.684l-4.471 1.607c-.791.287-.913.689-.268.901.641.211 1.805.152 2.594-.133l2.145-.783v2.265c-.137.026-.289.05-.428.072-2.145.352-4.43.206-6.68-.541-2.099-.594-2.449-1.832-1.491-2.542.883-.663 2.387-1.156 2.387-1.156l6.212-2.222v2.532zM31.825 10C19.772 10 10 19.771 10 31.825c0 12.054 9.772 21.825 21.825 21.825 12.054 0 21.826-9.771 21.826-21.825C53.651 19.771 43.879 10 31.825 10z"/></symbol><symbol id="ps-icon_brand_playstation-now" viewBox="0 0 64 64"><path fill-rule="evenodd" d="M40.615 36.1c-.47.594-1.622 1.021-1.622 1.021l-8.565 3.095v-2.284l6.304-2.257c.715-.258.825-.62.245-.812-.582-.193-1.632-.139-2.348.12l-4.2 1.49v-2.369l.241-.083s1.215-.434 2.921-.623c1.708-.188 3.798.027 5.438.65 1.85.59 2.06 1.454 1.586 2.052zm-10.93-10.232v14.614l-3.92-1.25V21.806c1.665.308 4.094 1.044 5.4 1.484 3.32 1.147 4.443 2.573 4.443 5.79 0 3.131-1.922 4.321-4.366 3.133v-5.839c0-.68-.125-1.312-.763-1.494-.49-.156-.795.302-.795.987zm-4.68 8.761l-4.046 1.453c-.716.26-.826.624-.243.815.581.192 1.632.138 2.347-.119l1.941-.708v2.05c-.123.022-.262.043-.387.063a12.634 12.634 0 0 1-6.044-.489c-1.899-.537-2.216-1.657-1.35-2.3.8-.6 2.161-1.045 2.161-1.045l5.62-2.01v2.29zM37.04 17.746c-5.4-3.21-16.67-8.356-20.32-6.258-3.649 2.098-4.809 14.387-4.715 20.65-.094 6.262 1.066 18.551 4.715 20.65 3.65 2.1 14.92-3.048 20.32-6.257 5.493-3.052 15.602-10.196 15.602-14.393 0-4.195-10.109-11.34-15.602-14.392z"/></symbol><symbol id="ps-icon_brand_playstation-plus" viewBox="0 0 64 64"><path fill-rule="evenodd" d="M35.887 9.71a1.464 1.464 0 0 1 1.649 1.242l1.603 11.711 11.794-1.614a1.461 1.461 0 0 1 1.648 1.242l1.405 10.27a1.423 1.423 0 0 1-.285 1.076l-2.832 3.71a1.471 1.471 0 0 1-.97.563l-8.514 1.165 1.157 8.45a1.445 1.445 0 0 1-.286 1.076c-.068.09-.164.152-.252.224l.176-.141.076-.082-2.833 3.71a1.464 1.464 0 0 1-.968.562L28.113 54.29a1.467 1.467 0 0 1-1.085-.282 1.444 1.444 0 0 1-.564-.96l-1.603-11.71-11.794 1.613a1.465 1.465 0 0 1-1.083-.28 1.446 1.446 0 0 1-.565-.962l-1.406-10.27c-.054-.397.059-.78.286-1.076l2.832-3.71.09-.107a1.47 1.47 0 0 1 .878-.456l8.515-1.165-1.156-8.45c-.054-.398.059-.78.286-1.077l2.832-3.71a1.463 1.463 0 0 1 .969-.562zm1.909 28.908l-2.73 3.594-3.592-2.728-.932 1.227 3.593 2.728-2.727 3.594 1.227.932 2.729-3.594 3.593 2.728.932-1.227-3.593-2.728 2.728-3.594-1.228-.932zM23.736 27.25l-8.283 1.134 1.134 8.284 8.285-1.133-1.135-8.285zm-1.317 1.736l.715 5.23-5.23.716-.715-5.23 5.23-.716zm28.597-1.25a4.594 4.594 0 1 0-9.104 1.248 4.594 4.594 0 0 0 9.104-1.248zm-4.965-2.4a3.057 3.057 0 0 1 3.438 2.61 3.055 3.055 0 0 1-2.61 3.436 3.056 3.056 0 0 1-3.438-2.609 3.057 3.057 0 0 1 2.61-3.438zm-15.186-12.97l-3.756 9.438 10.142-1.389-6.386-8.049zm.448 3.044l3.05 3.845-4.845.663 1.794-4.508z"/></symbol><symbol id="ps-icon_brand_playstation-stars" viewBox="0 0 64 64"><path fill-rule="evenodd" d="M39.704 11.355c11.35 1.948 19.452 12.694 17.948 24.143-1.106 9.489-8.932 17.363-18.44 18.36-6.46.784-13.218-1.73-17.539-6.59a20.017 20.017 0 0 1-4.56-8.498l.137-.039.144-.041c.947 3.019 2.613 5.81 4.858 8.027 5.168 5.242 13.298 7.052 20.174 4.436 7.883-2.875 13.023-11.094 11.968-19.429-.851-8.002-7.414-14.72-15.412-15.626-4.337-.54-8.885.627-12.37 3.25a16.91 16.91 0 0 0-3.48 3.476l-3-.924-1.05-3.403c5.073-5.584 12.816-8.571 20.622-7.142zm14.267 39.078v.196h-.563v1.723h-.233V50.63h-.579v-.196h1.375zm.675-.003l.531 1.708.547-1.708h.4v1.92h-.227v-1.744l-.576 1.743h-.294l-.55-1.743-.007 1.743h-.22V50.43h.396zM33.2 23.735c1.727.32 4.231 1.078 5.584 1.529 3.429 1.18 4.593 2.715 4.593 5.939s-1.986 4.445-4.51 3.224V28.43c0-.7-.127-1.353-.79-1.535-.505-.16-.821.31-.821 1.017v15.012L33.2 41.639V23.735zM46.913 36.31c1.913.608 2.127 1.494 1.64 2.111-.489.611-1.678 1.052-1.678 1.052l-8.846 3.18v-2.345l6.508-2.319c.735-.271.85-.642.252-.837-.604-.199-1.685-.141-2.43.124l-4.334 1.529v-2.44l.25-.083s1.253-.445 3.019-.637c1.762-.192 3.92.026 5.619.665zm-14.5-1.755v2.357l-4.177 1.496c-.739.266-.85.637-.256.832.608.201 1.682.147 2.424-.125l2.009-.723v2.105l-.407.067a13.012 13.012 0 0 1-6.24-.502c-1.956-.55-2.283-1.705-1.39-2.37.701-.516 1.82-.927 2.14-1.038l.078-.027.01-.003 5.809-2.07zm-15.819-18.71l2.262 7.334 7.333 2.26-7.333 2.262-2.262 7.333-2.26-7.333L7 25.44l7.333-2.261 2.261-7.334z"/></symbol><symbol id="ps-icon_brand_playstation-store" viewBox="0 0 64 64"><path fill-rule="evenodd" d="M40.772 40.18c-.476.592-1.63 1.019-1.63 1.019l-8.578 3.082v-2.275l6.314-2.248c.715-.264.823-.625.246-.813-.587-.192-1.635-.136-2.357.122l-4.203 1.482v-2.364l.242-.08s1.216-.431 2.926-.616c1.707-.188 3.802.023 5.447.644 1.855.589 2.062 1.448 1.593 2.047zM29.817 29.987v14.557l-3.931-1.246V25.937c1.673.308 4.103 1.046 5.414 1.483 3.323 1.144 4.452 2.566 4.452 5.76 0 3.123-1.926 4.31-4.372 3.124v-5.813c0-.678-.126-1.311-.767-1.489-.49-.156-.796.299-.796.985zm-.351-20.324c.315-.033.625.016.933.14-1.773 2.416-2.282 6.679-2.428 9.062-.73.002-1.431.003-2.105.006.262-5.676 1.54-8.998 3.6-9.208zm-4.34 29.051l-4.05 1.451c-.716.256-.823.619-.245.808.587.196 1.63.142 2.348-.122l1.947-.702v2.04c-.126.022-.265.043-.393.064a12.6 12.6 0 0 1-6.05-.486c-1.901-.53-2.218-1.649-1.35-2.294.799-.593 2.162-1.036 2.162-1.036l5.63-2.008v2.285zm6.41-28.093c1.69 1.754 2.838 5.374 3.329 8.243l-4.68-.001h-.804c.163-2.626.725-6.352 2.155-8.242zm2.077-1.198c.659-.004 1.269.311 1.862.959 1.794 1.956 2.72 6.138 3.067 8.485l-2.244-.002c-.505-3.125-1.762-7.113-3.703-9.185.31-.161.648-.255 1.018-.257zM49.43 19.747c-.01-.177-.172-.316-.367-.314l-3.756-.539a.42.42 0 0 0-.107-.016c-.754-.002-2.538-.006-5.226-.01-.32-2.445-1.247-6.523-3-8.892-.975-1.317-2.11-1.982-3.368-1.976a3.579 3.579 0 0 0-2.167.733c-.677-.397-1.384-.56-2.115-.486-3.537.362-4.644 5.564-4.873 10.632-5.006.03-8.236.091-9.312.114-.226.004-.41.165-.421.369a3233.2 3233.2 0 0 0-.878 15.57c-.491 9.064-.77 14.009-.84 15.316-.01.188.137.351.34.382l14.952 2.266 14.778 2.24a.48.48 0 0 0 .336-.075v.002l7.302-4.668a.641.641 0 0 0 .29-.561L49.43 19.747z"/></symbol><symbol id="ps-icon_brand_playstation-video" viewBox="0 0 64 64"><path fill-rule="evenodd" d="M50.286 24.245c0 .612-.5 1.113-1.111 1.113h-1.913a1.116 1.116 0 0 1-1.112-1.113v-1.659c0-.612.5-1.112 1.112-1.112h1.913c.611 0 1.111.5 1.111 1.112v1.659zm0 8.416c0 .611-.5 1.112-1.111 1.112h-1.913a1.115 1.115 0 0 1-1.112-1.112v-1.66c0-.611.5-1.112 1.112-1.112h1.913c.611 0 1.111.501 1.111 1.112v1.66zm0 8.415c0 .612-.5 1.112-1.111 1.112h-1.913c-.612 0-1.112-.5-1.112-1.112v-1.659c0-.612.5-1.113 1.112-1.113h1.913c.611 0 1.111.501 1.111 1.113v1.659zm-6.849-4.45c-.477.594-1.634 1.023-1.634 1.023l-8.599 3.092V38.46l6.33-2.257c.715-.265.824-.627.246-.817-.589-.191-1.64-.136-2.363.124l-4.213 1.487v-2.372l.242-.081s1.219-.433 2.934-.618c1.711-.189 3.811.023 5.46.646 1.859.591 2.067 1.453 1.597 2.054zM32.455 26.397v14.61l-3.941-1.251V22.333c1.677.309 4.113 1.05 5.427 1.488 3.331 1.148 4.464 2.575 4.464 5.78 0 3.134-1.932 4.325-4.384 3.136v-5.835c0-.679-.126-1.315-.768-1.494-.492-.156-.798.3-.798.989zm-4.703 8.759l-4.059 1.455c-.719.257-.826.62-.247.811.589.197 1.635.142 2.355-.122l1.951-.705v2.046c-.126.024-.266.044-.394.066a12.65 12.65 0 0 1-6.065-.487c-1.905-.534-2.223-1.656-1.354-2.303.802-.595 2.168-1.039 2.168-1.039l5.645-2.016v2.294zM17.286 24.245c0 .612-.5 1.113-1.111 1.113h-1.913a1.115 1.115 0 0 1-1.111-1.113v-1.659c0-.612.5-1.112 1.111-1.112h1.913c.611 0 1.111.5 1.111 1.112v1.659zm0 8.416c0 .611-.5 1.112-1.111 1.112h-1.913a1.115 1.115 0 0 1-1.111-1.112v-1.66c0-.611.5-1.112 1.111-1.112h1.913c.611 0 1.111.501 1.111 1.112v1.66zm0 8.415c0 .612-.5 1.112-1.111 1.112h-1.913c-.611 0-1.111-.5-1.111-1.112v-1.659c0-.612.5-1.113 1.111-1.113h1.913c.611 0 1.111.501 1.111 1.113v1.659zM54.299 15h-3.89a.123.123 0 0 0-.123.123v.707c0 .611-.5 1.112-1.111 1.112h-1.913a1.115 1.115 0 0 1-1.112-1.112v-.707a.122.122 0 0 0-.122-.123H17.403a.123.123 0 0 0-.122.124l.005.829a.992.992 0 0 1-.989.989h-2.035a1.115 1.115 0 0 1-1.111-1.112v-.707a.123.123 0 0 0-.123-.123H9.122a.123.123 0 0 0-.122.123v33.416c0 .068.055.123.122.123h3.906a.123.123 0 0 0 .123-.123v-.707c0-.611.5-1.112 1.111-1.112h1.913c.611 0 1.111.501 1.111 1.112v.707c0 .068.055.123.123.123h28.619a.122.122 0 0 0 .122-.123v-.707c0-.611.5-1.112 1.112-1.112h1.913c.611 0 1.111.501 1.111 1.112v.707c0 .068.055.123.123.123h3.89a.122.122 0 0 0 .123-.123V15.123a.122.122 0 0 0-.123-.123z"/></symbol><symbol id="ps-icon_brand_playstation-vue" viewBox="0 0 64 64"><path fill-rule="evenodd" d="M42.654 40.516l-8.641 3.105v-2.29l6.36-2.266c.72-.265.83-.63.248-.82-.591-.193-1.647-.137-2.374.123l-4.234 1.494V37.48l.243-.08s1.226-.434 2.949-.622c1.719-.188 3.829.024 5.487.65 1.868.593 2.077 1.458 1.604 2.061-.479.597-1.642 1.027-1.642 1.027zm-9.394 3.37l-3.96-1.255v-17.49c1.685.312 4.134 1.054 5.455 1.495 3.347 1.152 4.484 2.584 4.484 5.802 0 3.147-1.94 4.341-4.404 3.148V29.73c0-.683-.127-1.32-.773-1.5-.494-.157-.802.301-.802.992v14.665zm-4.726-5.873l-4.078 1.462c-.722.257-.83.622-.247.813.59.198 1.642.143 2.364-.122l1.961-.708v2.055c-.127.023-.266.043-.395.066a12.72 12.72 0 0 1-6.094-.49c-1.916-.535-2.235-1.662-1.361-2.312.805-.597 2.178-1.043 2.178-1.043l5.672-2.022v2.301zm21.56-17.805a273.962 273.962 0 0 0-13.449-.523.354.354 0 0 1-.245-.6l5.252-5.77a.775.775 0 0 0 .019-1.082.743.743 0 0 0-1.063-.019l-8.077 7.212a.35.35 0 0 1-.479 0l-8.077-7.212a.743.743 0 0 0-1.063.02.777.777 0 0 0 .019 1.081l5.252 5.77a.355.355 0 0 1-.245.6 274.01 274.01 0 0 0-13.449.523c-1.596.101-2.879 1.381-3.006 3.005-.316 4.02-.483 8.194-.483 12.476 0 4.284.167 8.46.483 12.484.127 1.62 1.406 2.896 3 3 5.676.361 11.646.555 17.809.555 6.162 0 12.132-.194 17.808-.556 1.594-.103 2.872-1.379 3-2.999.316-4.024.483-8.2.483-12.484 0-4.282-.166-8.456-.482-12.476-.128-1.624-1.41-2.904-3.007-3.005z"/></symbol><symbol id="ps-icon_brand_symbols" viewBox="0 0 64 64"><path fill-rule="evenodd" d="M25.102 25.063a6.937 6.937 0 1 1 0 13.875 6.937 6.937 0 0 1 0-13.875zm-14.584.02l7.907 13.351H2.965l7.553-13.352zm34.124.604l1.313 1.314-5.052 5.052 5.01 5.012-1.312 1.313-5.012-5.011-4.915 4.916-1.314-1.314 4.916-4.916-4.957-4.956 1.314-1.314 4.956 4.957 5.053-5.053zm16.394.02v12.628H48.409V25.707h12.627zM25.102 26.9a5.1 5.1 0 1 0 0 10.2 5.1 5.1 0 0 0 0-10.2zM10.54 28.321l-4.8 8.485h9.825l-5.025-8.485zm48.781-.898h-9.198v9.198h9.198v-9.198z"/></symbol><symbol id="ps-icon_brand_symbols--stacked" viewBox="0 0 64 64"><path fill-rule="evenodd" d="M39.825 32.725a7.664 7.664 0 0 1 7.665 7.664 7.664 7.664 0 0 1-7.665 7.665 7.665 7.665 0 1 1 0-15.329zm-11.867.77l1.452 1.45-5.583 5.584 5.537 5.537-1.451 1.451-5.538-5.537-5.433 5.432-1.45-1.45 5.43-5.433-5.475-5.477 1.45-1.452 5.478 5.477 5.583-5.582zm11.867 1.26a5.636 5.636 0 1 0 0 11.271 5.636 5.636 0 0 0 0-11.272zm-.007-18.81L48.554 30.7H31.47l8.347-14.754zm-10.297.802v13.952H15.568V16.747h13.953zm10.32 2.777L34.539 28.9h10.855l-5.551-9.376zm-12.215-.882H17.464v10.163h10.162V18.642z"/></symbol></svg>