<?xml version="1.0" encoding="utf-8"?>
<!-- Generator: Adobe Illustrator 23.0.3, SVG Export Plug-In . SVG Version: 6.00 Build 0)  -->
<svg version="1.1"
	 id="logo" xmlns:cc="http://creativecommons.org/ns#" xmlns:dc="http://purl.org/dc/elements/1.1/" xmlns:inkscape="http://www.inkscape.org/namespaces/inkscape" xmlns:rdf="http://www.w3.org/1999/02/22-rdf-syntax-ns#" xmlns:sodipodi="http://sodipodi.sourceforge.net/DTD/sodipodi-0.dtd" xmlns:svg="http://www.w3.org/2000/svg"
	 xmlns="http://www.w3.org/2000/svg" xmlns:xlink="http://www.w3.org/1999/xlink" x="0px" y="0px" viewBox="0 0 1000.1 363.8"
	 style="enable-background:new 0 0 1000.1 363.8;" xml:space="preserve">
<style type="text/css">
	.st0{fill:url(#SVGID_1_);}
	.st1{fill:url(#SVGID_2_);}
	.st2{fill:url(#SVGID_3_);}
	.st3{fill:#002B69;}
</style>
<g>
	<g id="XMLID_2705_">
		
			<linearGradient id="SVGID_1_" gradientUnits="userSpaceOnUse" x1="1319.9264" y1="573.3346" x2="1359.9264" y2="573.3346" gradientTransform="matrix(9.0943 0 0 -9.0943 -12003.793 5395.9561)">
			<stop  offset="0" style="stop-color:#E7380D"/>
			<stop  offset="2.000000e-02" style="stop-color:#E7380D"/>
			<stop  offset="7.511782e-02" style="stop-color:#E8410C"/>
			<stop  offset="0.1651" style="stop-color:#EC590A"/>
			<stop  offset="0.2786" style="stop-color:#F18107"/>
			<stop  offset="0.41" style="stop-color:#F9B703"/>
			<stop  offset="0.5" style="stop-color:#FFE100"/>
			<stop  offset="0.59" style="stop-color:#F9B703"/>
			<stop  offset="0.7214" style="stop-color:#F18107"/>
			<stop  offset="0.8349" style="stop-color:#EC590A"/>
			<stop  offset="0.9249" style="stop-color:#E8410C"/>
			<stop  offset="0.98" style="stop-color:#E7380D"/>
			<stop  offset="1" style="stop-color:#E7380D"/>
		</linearGradient>
		<polygon class="st0" points="181.9,0 0,181.9 181.9,363.8 363.8,181.9 		"/>
		
			<linearGradient id="SVGID_2_" gradientUnits="userSpaceOnUse" x1="1343.7793" y1="580.1363" x2="1333.0989" y2="580.1363" gradientTransform="matrix(9.0943 0 0 -9.0943 -12003.793 5394.1528)">
			<stop  offset="0.2" style="stop-color:#FFDD00"/>
			<stop  offset="0.2824" style="stop-color:#FDCA02"/>
			<stop  offset="0.4488" style="stop-color:#F79A05"/>
			<stop  offset="0.6813" style="stop-color:#EE4E0C"/>
			<stop  offset="0.9" style="stop-color:#E50012"/>
		</linearGradient>
		<polygon class="st1" points="118.2,118.2 191.9,191.9 191.9,44.6 		"/>
		
			<linearGradient id="SVGID_3_" gradientUnits="userSpaceOnUse" x1="-4971.7271" y1="7611.8438" x2="-4982.4077" y2="7611.8438" gradientTransform="matrix(-9.0943 0 0 9.0943 -45067.6094 -68978.7656)">
			<stop  offset="0.2" style="stop-color:#FFDD00"/>
			<stop  offset="0.2824" style="stop-color:#FDCA02"/>
			<stop  offset="0.4488" style="stop-color:#F79A05"/>
			<stop  offset="0.6813" style="stop-color:#EE4E0C"/>
			<stop  offset="0.9" style="stop-color:#E50012"/>
		</linearGradient>
		<polygon class="st2" points="171.9,171.9 171.9,319.2 245.5,245.5 		"/>
	</g>
	<g>
		<g>
			<path class="st3" d="M461.7,113.4c-2.1,1.5-5,2.2-8.6,2.2c-2.3,0-4.8-0.3-7.6-0.9c-2.8-0.6-5.6-1.5-8.4-2.7l-2.1,8.2
				c3,1.2,6.1,2.1,9.3,2.6c3.3,0.6,6.2,0.8,9,0.8c2.7,0,5.4-0.4,8-1c2.6-0.7,4.9-1.8,7-3.2c2-1.4,3.6-3.2,4.8-5.4
				c1.2-2.2,1.8-4.8,1.8-7.8c0-2.5-0.4-4.7-1.2-6.5c-0.8-1.9-1.9-3.5-3.4-5c-1.5-1.5-3.4-2.8-5.5-3.9c-2.2-1.2-4.5-2.3-7.1-3.3
				c-2.3-0.9-4.1-1.8-5.7-2.6c-1.5-0.8-2.8-1.6-3.8-2.4c-1-0.8-1.7-1.7-2.1-2.6c-0.4-0.9-0.7-2-0.7-3.1c0-1.5,0.3-2.7,1-3.7
				c0.6-1.1,1.4-1.9,2.4-2.5c1-0.6,2.2-1.1,3.6-1.4c1.4-0.3,2.7-0.4,4.1-0.4c2.2,0,4.4,0.2,6.6,0.6c2.3,0.4,4.5,1,6.6,1.8l2-8.1
				c-2.2-0.8-4.6-1.4-7.3-1.8c-2.7-0.4-5.4-0.6-8.2-0.6c-2.7,0-5.2,0.3-7.6,1c-2.4,0.7-4.6,1.7-6.6,3.1c-2,1.4-3.6,3.2-4.7,5.3
				c-1.2,2.2-1.8,4.7-1.8,7.5c0,2.2,0.3,4.1,1.1,5.9c0.8,1.8,1.8,3.3,3.2,4.8c1.4,1.4,3,2.7,5,3.9c2,1.2,4.2,2.3,6.8,3.3
				c2.2,0.9,4.1,1.7,5.8,2.5c1.7,0.8,3.1,1.7,4.2,2.6c1.1,0.9,2,1.9,2.5,2.9c0.6,1.1,0.8,2.3,0.8,3.6
				C464.9,109.8,463.8,112,461.7,113.4z"/>
			<path class="st3" d="M488.8,117.4c1.9,2,4.2,3.6,6.9,4.7c2.7,1.1,5.7,1.6,9.1,1.6c3.4,0,6.4-0.6,9.1-1.6c2.7-1.1,5-2.7,6.9-4.7
				c1.9-2.1,3.4-4.5,4.4-7.4c1.1-2.9,1.6-6.2,1.6-9.8c0-3.7-0.5-6.9-1.6-9.8c-1-2.9-2.5-5.4-4.4-7.4c-2-2-4.2-3.5-6.9-4.6
				c-2.7-1.1-5.7-1.6-9.1-1.6c-3.4,0-6.4,0.6-9.1,1.7c-2.7,1.1-5,2.6-6.9,4.6c-2,2-3.4,4.5-4.4,7.4c-1,2.9-1.6,6.2-1.6,9.8
				c0,3.7,0.6,7,1.6,9.8C485.4,112.9,486.9,115.4,488.8,117.4z M493.4,93.7c0.5-1.9,1.2-3.6,2.2-5.1c1-1.4,2.3-2.6,3.8-3.4
				c1.5-0.8,3.4-1.2,5.5-1.2c2.1,0,3.9,0.4,5.5,1.2c1.5,0.8,2.8,1.9,3.8,3.3c1,1.5,1.8,3.2,2.2,5.1c0.5,1.9,0.8,4.1,0.8,6.4h0
				c0,4.9-1,8.7-3,11.7c-2,2.9-5.1,4.4-9.2,4.5c-4.1-0.1-7.2-1.6-9.2-4.5c-2.1-3-3.1-6.8-3.1-11.6C492.6,97.8,492.9,95.7,493.4,93.7
				z"/>
			<path class="st3" d="M545.6,97.8c0-2.5,0.3-4.6,1-6.4c0.7-1.7,1.5-3.1,2.5-4.2c1.1-1.1,2.2-1.9,3.5-2.4c1.3-0.5,2.7-0.8,4-0.8
				c1.9,0,3.4,0.3,4.6,0.9c1.2,0.6,2.2,1.4,2.9,2.5c0.8,1.1,1.3,2.4,1.6,4c0.2,1.6,0.4,3.4,0.4,5.3v25.9h9.7V93.1
				c0-5-1.5-9-4.5-11.9c-2.9-2.9-6.9-4.4-11.9-4.4c-3.1,0-5.8,0.7-8.3,1.9c-2.5,1.3-4.4,3.1-5.6,5.4h-0.2v-6.3l-9.5,0v44.9h9.7V97.8
				z"/>
			<polygon class="st3" points="592.1,139.2 602.4,139.2 626.8,77.7 616.6,77.7 604.6,110.8 604.4,110.8 592.3,77.7 581.7,77.7 
				599.4,121.7 			"/>
		</g>
		<g>
			<rect x="438.2" y="151.5" class="st3" width="10" height="60.7"/>
			<path class="st3" d="M489.2,177c0.8,1.1,1.3,2.4,1.6,4c0.2,1.6,0.4,3.4,0.4,5.3v25.9h9.7v-29.6c0-5-1.5-9-4.4-11.9
				c-3-2.9-7-4.4-11.9-4.4c-3.1,0-5.8,0.7-8.3,1.9c-2.5,1.3-4.4,3.1-5.6,5.4h-0.2v-6.3l-9.5,0v44.9h9.7v-24.8c0-2.5,0.3-4.6,1-6.4
				c0.6-1.7,1.5-3.1,2.5-4.2c1-1.1,2.2-1.9,3.5-2.4c1.4-0.5,2.7-0.8,4-0.8c1.9,0,3.5,0.3,4.6,0.9C487.5,175.1,488.5,175.9,489.2,177
				z"/>
			<path class="st3" d="M535.3,212.3V205c-0.7,0.1-1.4,0.2-2.1,0.3c-0.7,0.1-1.5,0.1-2.3,0.1c-1.2,0-2.2-0.1-2.9-0.3
				c-0.7-0.2-1.2-0.5-1.6-1c-0.4-0.5-0.6-1.3-0.8-2.2c-0.2-1-0.2-2.2-0.2-3.7v-23.5h9.9v-7.4h-9.9v-11.6h-9.7v11.6h-7.5l0,7.4h7.5
				V200c0,2,0.2,3.8,0.4,5.4c0.3,1.6,0.9,2.9,1.8,4c0.9,1.1,2.1,2,3.7,2.5c1.6,0.6,3.7,0.9,6.3,0.9c1.4,0,2.7-0.1,4-0.2
				C533.2,212.5,534.4,212.4,535.3,212.3z"/>
			<path class="st3" d="M562.8,166.3c-3.3,0-6.3,0.6-8.9,1.8c-2.7,1.2-4.9,2.8-6.8,4.9c-1.9,2.1-3.3,4.6-4.3,7.5
				c-1,2.9-1.5,6-1.5,9.4c0,3.4,0.5,6.5,1.6,9.4c1.1,2.9,2.6,5.3,4.7,7.4c2.1,2.1,4.6,3.7,7.6,4.8c3,1.2,6.4,1.8,10.3,1.8
				c5.2,0,9.7-0.7,13.6-2.1l-1.3-7.2c-1.7,0.7-3.6,1.1-5.6,1.4c-2,0.3-4,0.5-5.9,0.5c-4.4,0-7.9-1.2-10.7-3.5
				c-2.8-2.3-4.4-5.6-4.7-9.8l31.5,0v-4.2c0-3.4-0.4-6.4-1.2-9.1c-0.9-2.8-2.1-5.1-3.7-7c-1.7-1.9-3.7-3.4-6.1-4.5
				C568.9,166.9,566,166.3,562.8,166.3z M573.3,185.5h-22.5c0.5-3.7,1.7-6.6,3.7-8.8c2.1-2.2,4.9-3.4,8.3-3.4v0
				c3.3,0,5.8,1.1,7.7,3.3c1.9,2.2,2.8,5.1,2.8,8.7V185.5z"/>
			<path class="st3" d="M616,166.5c-0.6-0.1-1.2-0.1-1.7-0.2c-0.6-0.1-1.1-0.1-1.6-0.1c-5.8,0-9.7,2.3-11.8,7h-0.2v-5.9h-9.5v44.9
				h9.7v-24c0-2.6,0.3-4.8,0.8-6.7c0.6-2,1.4-3.5,2.3-4.6c1-1.1,2.2-2,3.6-2.5c1.4-0.6,2.8-0.8,4.1-0.7c1.5,0,2.7,0.1,3.7,0.4
				L616,166.5z"/>
			<path class="st3" d="M647.4,206.1h0.2c0.2,1,0.2,2.1,0.4,3.2c0.2,1.2,0.3,2.1,0.6,2.9h8.7c-0.3-1.5-0.5-3.2-0.7-5
				c-0.2-1.9-0.2-3.6-0.2-5.2v-19c0-5.5-1.7-9.7-4.9-12.5c-3.3-2.8-8.2-4.2-14.6-4.2c-2.4,0-4.9,0.3-7.7,0.9
				c-2.8,0.6-4.9,1.2-6.5,1.8l2,7.2c2-0.8,4-1.4,6-1.9c2.1-0.4,3.9-0.6,5.5-0.6c3.6,0,6.2,0.8,7.9,2.4c1.7,1.6,2.6,3.9,2.6,6.9l0,1
				c-3.9,0-7.5,0.2-10.9,0.6c-3.5,0.4-6.5,1.2-9.1,2.3c-2.6,1.1-4.7,2.7-6.3,4.7c-1.5,2-2.3,4.7-2.3,7.9c0,2.5,0.5,4.7,1.4,6.4
				c1,1.8,2.1,3.2,3.6,4.3c1.5,1.1,3.2,1.9,5,2.4c1.9,0.5,3.8,0.7,5.7,0.7c3.3,0,6.1-0.7,8.4-2C644.5,209.9,646.2,208.2,647.4,206.1
				z M640.2,205.1c-1.5,0.7-3.3,1.1-5.3,1.1c-2.5,0-4.4-0.7-5.6-2c-1.3-1.3-1.9-3-1.9-5.1c0-1.8,0.5-3.2,1.5-4.3
				c0.9-1.1,2.2-2,3.8-2.6c1.6-0.7,3.5-1.1,5.6-1.4c2.1-0.2,4.3-0.3,6.6-0.3l1.9,0v3.5c0,1.6-0.2,3.1-0.7,4.6
				c-0.5,1.5-1.2,2.8-2.1,3.9C642.9,203.5,641.7,204.4,640.2,205.1z"/>
			<path class="st3" d="M688.6,213.3c1.8,0,3.5-0.1,5.2-0.4c1.7-0.3,3.4-0.7,5.1-1.4l-1.6-7.3c-1.4,0.7-2.7,1.1-4,1.3
				c-1.3,0.2-2.7,0.4-4.1,0.4c-2.3,0-4.3-0.4-6.2-1.3c-1.9-0.8-3.4-2-4.6-3.5c-1.2-1.5-2.1-3.2-2.7-5.1c-0.6-2-1-4-1-6.2
				c0-2.2,0.3-4.3,1-6.3c0.6-2,1.5-3.7,2.7-5.1c1.2-1.5,2.7-2.6,4.5-3.5c1.8-0.9,3.8-1.3,6.2-1.3c1.3,0,2.6,0.1,4,0.4
				c1.4,0.3,2.8,0.7,4,1.3l1.9-7.4c-2.9-1.1-6.4-1.6-10.4-1.6c-3.7,0-7,0.6-9.9,1.8c-2.9,1.2-5.4,2.8-7.4,4.9
				c-2,2.1-3.6,4.6-4.7,7.4c-1.1,2.9-1.6,6-1.6,9.5c0,3.4,0.5,6.4,1.5,9.3c1,2.8,2.5,5.3,4.4,7.4c2,2.1,4.5,3.8,7.4,4.9
				C681.4,212.7,684.8,213.3,688.6,213.3z"/>
			<path class="st3" d="M731.1,212.3V205c-0.7,0.1-1.4,0.2-2.1,0.3c-0.7,0.1-1.5,0.1-2.3,0.1c-1.2,0-2.2-0.1-2.9-0.3
				c-0.7-0.2-1.2-0.5-1.6-1c-0.4-0.5-0.6-1.3-0.8-2.2c-0.2-1-0.2-2.2-0.2-3.7v-23.5h9.9v-7.4h-9.9v-11.6h-9.7v11.6H704l0,7.4h7.5
				V200c0,2,0.1,3.8,0.4,5.4c0.3,1.6,0.9,2.9,1.8,4c0.9,1.1,2.1,2,3.7,2.5c1.6,0.6,3.7,0.9,6.3,0.9c1.4,0,2.7-0.1,4-0.2
				C729,212.5,730.1,212.4,731.1,212.3z"/>
			<g>
				<rect x="740.1" y="167.4" class="st3" width="9.7" height="44.9"/>
				<rect x="740" y="150.2" class="st3" width="10" height="9"/>
			</g>
			<polygon class="st3" points="784.9,212.3 801.8,167.4 791.5,167.4 779.5,203.7 779.4,203.7 767.4,167.4 756.8,167.4 773.5,212.3 
							"/>
			<path class="st3" d="M810.7,206.7c2.1,2.1,4.6,3.7,7.6,4.8c3,1.2,6.4,1.8,10.3,1.8c5.2,0,9.7-0.7,13.6-2.1l-1.3-7.2
				c-1.7,0.7-3.5,1.1-5.6,1.4c-2,0.3-4,0.5-5.9,0.5c-4.4,0-7.9-1.2-10.7-3.5c-2.8-2.3-4.3-5.6-4.7-9.8l31.5,0v-4.2
				c0-3.4-0.4-6.4-1.2-9.1c-0.9-2.8-2.1-5.1-3.7-7c-1.7-1.9-3.7-3.4-6.1-4.5c-2.4-1-5.2-1.6-8.5-1.6c-3.3,0-6.3,0.6-8.9,1.8
				c-2.7,1.2-4.9,2.8-6.8,4.9c-1.9,2.1-3.3,4.6-4.3,7.5c-1,2.9-1.5,6-1.5,9.4c0,3.4,0.5,6.5,1.6,9.4
				C807,202.1,808.6,204.6,810.7,206.7z M817.7,176.6c2.1-2.2,4.8-3.4,8.2-3.4v0c3.3,0,5.8,1.1,7.7,3.3c1.9,2.2,2.8,5.1,2.8,8.7v0.2
				H814C814.4,181.8,815.6,178.9,817.7,176.6z"/>
		</g>
		<g>
			<polygon class="st3" points="448.2,274.8 471.4,274.8 471.4,266.6 448.2,266.6 448.2,249.2 473.4,249.2 473.4,241.1 438.2,241.1 
				438.2,301.8 474.1,301.8 474.1,293.8 448.2,293.8 			"/>
			<path class="st3" d="M508.2,255.9c-3,0-5.8,0.7-8.3,1.9c-2.5,1.3-4.4,3.1-5.7,5.4h-0.2v-6.3l-9.5,0v44.9h9.7V277
				c0-2.5,0.3-4.6,1-6.4c0.7-1.7,1.5-3.1,2.5-4.2c1-1.1,2.2-1.9,3.5-2.4c1.3-0.5,2.6-0.8,4-0.8c1.9,0,3.4,0.3,4.6,0.9
				c1.2,0.6,2.2,1.4,2.9,2.5c0.8,1.1,1.2,2.4,1.6,4c0.3,1.6,0.4,3.4,0.4,5.3v25.9h9.7v-29.6c0-5-1.5-9-4.5-11.9
				C517.1,257.4,513.2,255.9,508.2,255.9z"/>
			<path class="st3" d="M549.1,245.3h-9.7v11.7h-7.5l0,7.4h7.5v25.3c0,2,0.2,3.8,0.4,5.4c0.3,1.6,0.9,2.9,1.8,4
				c0.9,1.1,2.1,2,3.7,2.5c1.6,0.6,3.7,0.9,6.3,0.9c1.3,0,2.6,0,3.9-0.2c1.3-0.1,2.5-0.2,3.4-0.3v-7.2c-0.7,0.1-1.3,0.2-2.1,0.3
				c-0.7,0.1-1.5,0.1-2.3,0.1c-1.2,0-2.2-0.1-2.8-0.3c-0.7-0.2-1.3-0.5-1.7-1c-0.4-0.5-0.6-1.3-0.8-2.2c-0.2-1-0.2-2.2-0.2-3.7
				v-23.5h9.9v-7.4h-9.9V245.3z"/>
			<path class="st3" d="M601,261.9c-1.7-1.9-3.7-3.4-6.1-4.5c-2.4-1-5.2-1.6-8.5-1.6c-3.3,0-6.3,0.6-8.9,1.8
				c-2.6,1.2-4.9,2.8-6.8,4.9c-1.9,2.1-3.3,4.6-4.3,7.5c-1,2.9-1.5,6-1.5,9.4c0,3.4,0.6,6.5,1.6,9.4c1.1,2.9,2.6,5.3,4.7,7.4
				c2,2.1,4.6,3.7,7.6,4.8c3,1.2,6.5,1.8,10.3,1.8c5.1,0,9.6-0.7,13.5-2.1l-1.3-7.2c-1.7,0.7-3.6,1.1-5.6,1.4
				c-2.1,0.3-4,0.5-5.9,0.5c-4.4,0-8-1.2-10.7-3.5c-2.8-2.3-4.4-5.6-4.7-9.8l31.5,0V278c0-3.4-0.5-6.4-1.3-9.1
				C603.9,266.1,602.7,263.8,601,261.9z M596.9,275.1h-22.4c0.4-3.7,1.6-6.6,3.7-8.8c2.1-2.2,4.8-3.4,8.2-3.4v0
				c3.3,0,5.8,1.1,7.7,3.3c1.9,2.2,2.8,5.1,2.8,8.7V275.1z"/>
			<path class="st3" d="M636.3,255.9c-5.8,0-9.7,2.3-11.8,7h-0.2v-5.9h-9.5v44.9h9.7v-24c0-2.6,0.3-4.8,0.8-6.7
				c0.6-2,1.4-3.5,2.3-4.6c1-1.1,2.2-2,3.6-2.5c1.4-0.6,2.8-0.8,4.1-0.7c1.5,0,2.7,0.1,3.7,0.3l0.5-7.5c-0.6-0.1-1.2-0.1-1.7-0.2
				C637.3,255.9,636.8,255.9,636.3,255.9z"/>
			<path class="st3" d="M660.6,245.3h-9.8v11.7h-7.5l0,7.4h7.5v25.3c0,2,0.2,3.8,0.4,5.4c0.3,1.6,0.9,2.9,1.8,4
				c0.9,1.1,2.1,2,3.7,2.5c1.6,0.6,3.7,0.9,6.3,0.9c1.3,0,2.6,0,3.9-0.2c1.3-0.1,2.5-0.2,3.4-0.3v-7.2c-0.7,0.1-1.3,0.2-2.1,0.3
				c-0.7,0.1-1.5,0.1-2.3,0.1c-1.2,0-2.2-0.1-2.9-0.3c-0.7-0.2-1.2-0.5-1.6-1c-0.4-0.5-0.6-1.3-0.8-2.2c-0.2-1-0.2-2.2-0.2-3.7
				v-23.5h9.9v-7.4h-9.9V245.3z"/>
			<path class="st3" d="M714.6,291.6v-19c0-5.5-1.7-9.7-4.9-12.5c-3.3-2.8-8.2-4.2-14.6-4.2c-2.4,0-4.9,0.3-7.7,0.9
				c-2.8,0.6-5,1.2-6.5,1.8l2,7.2c1.9-0.8,3.9-1.4,6-1.9c2.1-0.4,3.9-0.6,5.5-0.6c3.6,0,6.2,0.8,7.9,2.4c1.7,1.6,2.6,3.9,2.6,6.9
				l0,1c-3.8,0-7.5,0.2-10.9,0.6c-3.4,0.4-6.5,1.2-9.1,2.3c-2.7,1.1-4.8,2.7-6.3,4.7c-1.5,2-2.3,4.7-2.3,7.9c0,2.5,0.5,4.7,1.4,6.4
				c0.9,1.8,2.1,3.2,3.6,4.3c1.5,1.1,3.2,1.9,5,2.4c1.9,0.5,3.7,0.7,5.7,0.7c3.3,0,6.1-0.7,8.4-2c2.4-1.3,4.1-3,5.2-5.1h0.2
				c0.1,1,0.2,2.1,0.4,3.2c0.2,1.2,0.4,2.1,0.6,2.9h8.6c-0.3-1.5-0.5-3.2-0.6-5C714.7,294.9,714.6,293.2,714.6,291.6z M704.8,283.5
				c0,1.6-0.2,3.1-0.7,4.6c-0.5,1.5-1.2,2.8-2.1,3.9c-1,1.2-2.2,2.1-3.7,2.7c-1.5,0.7-3.3,1.1-5.3,1.1c-2.5,0-4.4-0.7-5.6-2
				c-1.3-1.3-1.9-3-1.9-5.1c0-1.8,0.5-3.2,1.4-4.3c1-1.1,2.2-2,3.8-2.6c1.6-0.7,3.4-1.1,5.5-1.4c2.1-0.2,4.3-0.3,6.6-0.3l1.9,0
				V283.5z"/>
			<g>
				<rect x="726.6" y="256.9" class="st3" width="9.7" height="44.9"/>
				<rect x="726.6" y="239.7" class="st3" width="10" height="9"/>
			</g>
			<path class="st3" d="M772.9,255.9c-3,0-5.8,0.7-8.3,1.9c-2.5,1.3-4.4,3.1-5.6,5.4h-0.2v-6.3l-9.5,0v44.9h9.7V277
				c0-2.5,0.3-4.6,1-6.4c0.7-1.7,1.5-3.1,2.6-4.2c1-1.1,2.2-1.9,3.5-2.4c1.3-0.5,2.7-0.8,4-0.8c1.9,0,3.4,0.3,4.6,0.9
				c1.2,0.6,2.2,1.4,2.9,2.5c0.8,1.1,1.2,2.4,1.6,4c0.2,1.6,0.4,3.4,0.4,5.3v25.9h9.7v-29.6c0-5-1.5-9-4.5-11.9
				C782,257.4,778,255.9,772.9,255.9z"/>
			<path class="st3" d="M863,260.5c-1.3-1.5-3-2.6-5.1-3.4c-2.1-0.8-4.5-1.2-7.2-1.2c-2.9-0.1-5.5,0.5-8,1.7
				c-2.5,1.2-4.5,3.1-6.1,5.7h-0.2c-2.2-4.9-6.6-7.3-13.3-7.3c-2.8,0-5.4,0.7-7.9,2c-2.5,1.3-4.2,3.2-5.4,5.5h-0.2v-6.4l-9.4,0v44.9
				h9.7v-25.4c0-2.4,0.3-4.5,0.9-6.1c0.6-1.7,1.3-3,2.3-4c0.9-1,2-1.8,3.2-2.3c1.3-0.5,2.6-0.8,3.9-0.8c1.8,0,3.2,0.3,4.4,0.8
				c1.2,0.6,2.1,1.3,2.7,2.4c0.7,1.1,1,2.4,1.3,3.9c0.2,1.5,0.3,3.2,0.3,5.1v26.4h9.7v-27.4c0-2,0.3-3.6,0.8-5.1
				c0.6-1.5,1.4-2.6,2.2-3.5c1-0.9,2-1.5,3.2-1.9c1.2-0.5,2.4-0.7,3.6-0.7c1.8,0,3.3,0.3,4.4,0.9c1.2,0.6,2.1,1.4,2.8,2.6
				c0.6,1.1,1.1,2.4,1.4,3.7c0.2,1.4,0.3,3.2,0.3,5.5v25.9h9.7v-29.6c0-2.5-0.3-4.7-1-6.6C865.4,263.6,864.4,261.9,863,260.5z"/>
			<path class="st3" d="M911.7,261.9c-1.7-1.9-3.7-3.4-6.1-4.5c-2.4-1-5.2-1.6-8.5-1.6c-3.3,0-6.3,0.6-8.9,1.8
				c-2.7,1.2-4.9,2.8-6.8,4.9c-1.9,2.1-3.3,4.6-4.3,7.5c-1,2.9-1.5,6-1.5,9.4c0,3.4,0.5,6.5,1.6,9.4c1.1,2.9,2.6,5.3,4.7,7.4
				c2.1,2.1,4.6,3.7,7.6,4.8c3,1.2,6.4,1.8,10.3,1.8c5.2,0,9.7-0.7,13.6-2.1l-1.3-7.2c-1.7,0.7-3.6,1.1-5.6,1.4
				c-2,0.3-4,0.5-5.9,0.5c-4.4,0-7.9-1.2-10.7-3.5c-2.8-2.3-4.3-5.6-4.7-9.8l31.5,0V278c0-3.4-0.4-6.4-1.2-9.1
				C914.6,266.1,913.4,263.8,911.7,261.9z M907.6,275.1h-22.5c0.5-3.7,1.7-6.6,3.7-8.8c2.1-2.2,4.9-3.4,8.3-3.4v0
				c3.3,0,5.8,1.1,7.7,3.3c1.9,2.2,2.8,5.1,2.8,8.7V275.1z"/>
			<path class="st3" d="M949.2,255.9c-3.1,0-5.8,0.7-8.3,1.9c-2.5,1.3-4.4,3.1-5.6,5.4h-0.2v-6.3l-9.5,0v44.9h9.7V277
				c0-2.5,0.3-4.6,1-6.4c0.6-1.7,1.5-3.1,2.5-4.2c1-1.1,2.2-1.9,3.5-2.4c1.4-0.5,2.7-0.8,4.1-0.8c1.9,0,3.4,0.3,4.6,0.9
				c1.2,0.6,2.2,1.4,2.9,2.5c0.8,1.1,1.3,2.4,1.6,4c0.2,1.6,0.4,3.4,0.4,5.3v25.9h9.7v-29.6c0-5-1.5-9-4.4-11.9
				C958.2,257.4,954.2,255.9,949.2,255.9z"/>
			<path class="st3" d="M1000.1,264.3v-7.4h-9.9v-11.7h-9.7v11.7h-7.5l0,7.4h7.5v25.3c0,2,0.2,3.8,0.4,5.4c0.3,1.6,0.9,2.9,1.8,4
				c0.9,1.1,2.1,2,3.7,2.5c1.6,0.6,3.7,0.9,6.3,0.9c1.3,0,2.6-0.1,3.9-0.2c1.3-0.1,2.5-0.2,3.4-0.3v-7.2c-0.7,0.1-1.4,0.2-2.1,0.3
				c-0.7,0.1-1.5,0.1-2.3,0.1c-1.2,0-2.2-0.1-2.9-0.3c-0.7-0.2-1.2-0.5-1.6-1c-0.4-0.5-0.6-1.3-0.8-2.2c-0.1-1-0.2-2.2-0.2-3.7
				v-23.5H1000.1z"/>
		</g>
	</g>
</g>
</svg>
